<svg aria-hidden="true" style="position: absolute; width: 0; height: 0; overflow: hidden;" version="1.1" xmlns="http://www.w3.org/2000/svg" xmlns:xlink="http://www.w3.org/1999/xlink">
<defs>
<symbol id="icon-arrow-right-fill" viewBox="0 0 32 32">
<path d="M16 17.333h-10.667v-2.667h10.667v-9.333l10.667 10.667-10.667 10.667z"></path>
</symbol>
<symbol id="icon-arrow-right-line" viewBox="0 0 32 32">
<path d="M21.563 14.667l-7.152-7.152 1.885-1.885 10.371 10.371-10.371 10.371-1.885-1.885 7.152-7.152h-16.229v-2.667z"></path>
</symbol>
<symbol id="icon-calendar-2-line" viewBox="0 0 32 32">
<path d="M22.667 4h5.333c0.736 0 1.333 0.597 1.333 1.333v0 21.333c0 0.736-0.597 1.333-1.333 1.333v0h-24c-0.736 0-1.333-0.597-1.333-1.333v0-21.333c0-0.736 0.597-1.333 1.333-1.333v0h5.333v-2.667h2.667v2.667h8v-2.667h2.667v2.667zM26.667 14.667h-21.333v10.667h21.333v-10.667zM20 6.667h-8v2.667h-2.667v-2.667h-4v5.333h21.333v-5.333h-4v2.667h-2.667v-2.667zM8 17.333h2.667v2.667h-2.667v-2.667zM14.667 17.333h2.667v2.667h-2.667v-2.667zM21.333 17.333h2.667v2.667h-2.667v-2.667z"></path>
</symbol>
<symbol id="icon-calendar-event-fill" viewBox="0 0 32 32">
<path d="M22.667 4h5.333c0.736 0 1.333 0.597 1.333 1.333v0 21.333c0 0.736-0.597 1.333-1.333 1.333v0h-24c-0.736 0-1.333-0.597-1.333-1.333v0-21.333c0-0.736 0.597-1.333 1.333-1.333v0h5.333v-2.667h2.667v2.667h8v-2.667h2.667v2.667zM5.333 12v13.333h21.333v-13.333h-21.333zM8 17.333h6.667v5.333h-6.667v-5.333z"></path>
</symbol>
<symbol id="icon-chat-3-line" viewBox="0 0 32 32">
<path d="M9.721 27.765l-7.055 1.568 1.568-7.055c-0.987-1.811-1.568-3.967-1.568-6.259 0-0.007 0-0.014 0-0.021v0.001c0-7.364 5.969-13.333 13.333-13.333s13.333 5.969 13.333 13.333-5.969 13.333-13.333 13.333c-0.006 0-0.013 0-0.020 0-2.291 0-4.447-0.581-6.329-1.603l0.070 0.035zM10.108 24.948l0.871 0.467c1.447 0.788 3.169 1.252 4.999 1.252 0.008 0 0.016 0 0.023-0h-0.001c5.891 0 10.667-4.776 10.667-10.667s-4.776-10.667-10.667-10.667c-5.891 0-10.667 4.776-10.667 10.667v0c0 1.779 0.433 3.491 1.253 5.021l0.465 0.871-0.873 3.929 3.929-0.873z"></path>
</symbol>
<symbol id="icon-facebook-circle-fill" viewBox="0 0 32 32">
<path d="M16 2.667c-7.364 0-13.333 5.969-13.333 13.333 0 6.655 4.876 12.171 11.251 13.172v-9.319h-3.387v-3.853h3.387v-2.937c0-3.341 1.989-5.187 5.036-5.187 1.459 0 2.984 0.26 2.984 0.26v3.28h-1.68c-1.657 0-2.173 1.028-2.173 2.083v2.501h3.697l-0.591 3.853h-3.107v9.319c6.373-1 11.249-6.519 11.249-13.172 0-7.364-5.969-13.333-13.333-13.333z"></path>
</symbol>
<symbol id="icon-global-line" viewBox="0 0 32 32">
<path d="M16 29.333c-7.364 0-13.333-5.969-13.333-13.333s5.969-13.333 13.333-13.333 13.333 5.969 13.333 13.333-5.969 13.333-13.333 13.333zM12.947 26.223c-1.254-2.597-2.063-5.628-2.241-8.827l-0.003-0.062h-5.287c0.551 4.238 3.518 7.661 7.455 8.869l0.076 0.020zM13.373 17.333c0.201 3.252 1.131 6.307 2.627 9.003 1.469-2.597 2.418-5.669 2.624-8.941l0.003-0.061h-5.253zM26.584 17.333h-5.287c-0.181 3.261-0.99 6.292-2.306 9.033l0.062-0.143c4.012-1.229 6.98-4.651 7.525-8.836l0.006-0.054zM5.416 14.667h5.287c0.181-3.261 0.99-6.292 2.306-9.033l-0.062 0.143c-4.012 1.229-6.98 4.652-7.525 8.836l-0.006 0.054zM13.375 14.667h5.251c-0.209-3.334-1.157-6.405-2.68-9.109l0.055 0.106c-1.469 2.597-2.418 5.669-2.624 8.941l-0.003 0.061zM19.053 5.777c1.254 2.597 2.063 5.628 2.241 8.827l0.003 0.062h5.287c-0.551-4.238-3.518-7.661-7.455-8.869l-0.076-0.020z"></path>
</symbol>
<symbol id="icon-group-line" viewBox="0 0 32 32">
<path d="M2.667 29.333c0-5.891 4.776-10.667 10.667-10.667s10.667 4.776 10.667 10.667v0h-2.667c0-4.418-3.582-8-8-8s-8 3.582-8 8v0h-2.667zM13.333 17.333c-4.42 0-8-3.58-8-8s3.58-8 8-8 8 3.58 8 8-3.58 8-8 8zM13.333 14.667c2.947 0 5.333-2.387 5.333-5.333s-2.387-5.333-5.333-5.333-5.333 2.387-5.333 5.333 2.387 5.333 5.333 5.333zM24.379 19.604c3.738 1.714 6.288 5.423 6.288 9.728 0 0 0 0.001 0 0.001v-0h-2.667c0-0 0-0.001 0-0.002 0-3.229-1.912-6.011-4.666-7.275l-0.050-0.020 1.093-2.432zM23.461 4.551c2.686 1.129 4.539 3.738 4.539 6.78 0 0.001 0 0.002 0 0.003v-0c0 0.001 0 0.001 0 0.002 0 3.815-2.914 6.95-6.637 7.3l-0.029 0.002v-2.684c2.277-0.335 4.005-2.276 4.005-4.62 0-1.831-1.055-3.416-2.59-4.18l-0.027-0.012 0.74-2.591z"></path>
</symbol>
<symbol id="icon-instagram-fill" viewBox="0 0 32 32">
<path d="M16 2.667c3.623 0 4.075 0.013 5.496 0.080 1.42 0.067 2.387 0.289 3.237 0.62 0.88 0.339 1.621 0.797 2.363 1.537 0.661 0.65 1.184 1.438 1.522 2.318l0.015 0.045c0.329 0.849 0.553 1.817 0.62 3.237 0.063 1.421 0.080 1.873 0.080 5.496s-0.013 4.075-0.080 5.496c-0.067 1.42-0.291 2.387-0.62 3.237-0.352 0.925-0.876 1.713-1.536 2.362l-0.001 0.001c-0.65 0.661-1.438 1.184-2.318 1.522l-0.045 0.015c-0.849 0.329-1.817 0.553-3.237 0.62-1.421 0.063-1.873 0.080-5.496 0.080s-4.075-0.013-5.496-0.080c-1.42-0.067-2.387-0.291-3.237-0.62-0.925-0.353-1.713-0.876-2.362-1.536l-0.001-0.001c-0.661-0.65-1.184-1.438-1.522-2.318l-0.015-0.045c-0.331-0.849-0.553-1.817-0.62-3.237-0.063-1.421-0.080-1.873-0.080-5.496s0.013-4.075 0.080-5.496c0.067-1.421 0.289-2.387 0.62-3.237 0.352-0.925 0.875-1.713 1.536-2.362l0.001-0.001c0.65-0.661 1.438-1.184 2.318-1.522l0.045-0.015c0.851-0.331 1.816-0.553 3.237-0.62 1.421-0.063 1.873-0.080 5.496-0.080zM16 9.333c-3.682 0-6.667 2.985-6.667 6.667s2.985 6.667 6.667 6.667v0c3.682 0 6.667-2.985 6.667-6.667s-2.985-6.667-6.667-6.667v0zM24.667 9c0-0.92-0.746-1.667-1.667-1.667s-1.667 0.746-1.667 1.667v0c0 0.92 0.746 1.667 1.667 1.667s1.667-0.746 1.667-1.667v0zM16 12c2.209 0 4 1.791 4 4s-1.791 4-4 4v0c-2.209 0-4-1.791-4-4s1.791-4 4-4v0z"></path>
</symbol>
<symbol id="icon-mail-line" viewBox="0 0 32 32">
<path d="M4 4h24c0.736 0 1.333 0.597 1.333 1.333v0 21.333c0 0.736-0.597 1.333-1.333 1.333v0h-24c-0.736 0-1.333-0.597-1.333-1.333v0-21.333c0-0.736 0.597-1.333 1.333-1.333v0zM26.667 9.651l-10.571 9.467-10.763-9.496v15.712h21.333v-15.683zM6.015 6.667l10.067 8.883 9.921-8.883h-19.988z"></path>
</symbol>
<symbol id="icon-map-pin-line" viewBox="0 0 32 32">
<path d="M16 27.867l6.6-6.6c1.689-1.689 2.733-4.022 2.733-6.599 0-5.155-4.179-9.333-9.333-9.333s-9.333 4.179-9.333 9.333c0 2.577 1.045 4.91 2.733 6.599l6.6 6.6zM16 31.637l-8.485-8.485c-2.172-2.172-3.515-5.172-3.515-8.485 0-6.627 5.373-12 12-12s12 5.373 12 12c0 3.314-1.343 6.314-3.515 8.485l-8.485 8.485zM16 17.333c1.473 0 2.667-1.194 2.667-2.667s-1.194-2.667-2.667-2.667v0c-1.473 0-2.667 1.194-2.667 2.667s1.194 2.667 2.667 2.667v0zM16 20c-2.946 0-5.333-2.388-5.333-5.333s2.388-5.333 5.333-5.333v0c2.946 0 5.333 2.388 5.333 5.333s-2.388 5.333-5.333 5.333v0z"></path>
</symbol>
<symbol id="icon-riding-line" viewBox="0 0 32 32">
<path d="M7.333 28c-3.314 0-6-2.686-6-6s2.686-6 6-6v0c3.314 0 6 2.686 6 6s-2.686 6-6 6v0zM7.333 25.333c1.841 0 3.333-1.492 3.333-3.333s-1.492-3.333-3.333-3.333v0c-1.841 0-3.333 1.492-3.333 3.333s1.492 3.333 3.333 3.333v0zM24.667 28c-3.314 0-6-2.686-6-6s2.686-6 6-6v0c3.314 0 6 2.686 6 6s-2.686 6-6 6v0zM24.667 25.333c1.841 0 3.333-1.492 3.333-3.333s-1.492-3.333-3.333-3.333v0c-1.841 0-3.333 1.492-3.333 3.333s1.492 3.333 3.333 3.333v0zM14.697 13.74l2.636 2.26v8h-2.667v-6.667l-3.625-3.021c-0.702-0.487-1.156-1.29-1.156-2.198 0-0.737 0.299-1.404 0.782-1.886l3.771-3.771c0.483-0.483 1.149-0.781 1.886-0.781s1.403 0.299 1.886 0.781l1.885 1.885c1.369 1.374 3.164 2.321 5.171 2.627l0.052 0.006-0.013 2.687c-2.793-0.33-5.246-1.58-7.094-3.433l-0-0-3.512 3.511zM21.333 6.667c-1.473 0-2.667-1.194-2.667-2.667s1.194-2.667 2.667-2.667v0c1.473 0 2.667 1.194 2.667 2.667s-1.194 2.667-2.667 2.667v0z"></path>
</symbol>
<symbol id="icon-search-line" viewBox="0 0 32 32">
<path d="M24.041 22.156l5.711 5.709-1.887 1.887-5.709-5.711c-2.027 1.636-4.634 2.625-7.472 2.625-0.006 0-0.012 0-0.018 0h0.001c-6.624 0-12-5.376-12-12s5.376-12 12-12 12 5.376 12 12c0 0.005 0 0.011 0 0.017 0 2.838-0.99 5.446-2.643 7.495l0.018-0.023zM21.367 21.167c1.629-1.674 2.633-3.962 2.633-6.485 0-0.005 0-0.010 0-0.015v0.001c0-5.157-4.177-9.333-9.333-9.333-5.157 0-9.333 4.176-9.333 9.333 0 5.156 4.176 9.333 9.333 9.333 0.004 0 0.009 0 0.015 0 2.523 0 4.812-1.005 6.487-2.635l-0.002 0.002 0.2-0.2z"></path>
</symbol>
<symbol id="icon-star-fill" viewBox="0 0 32 32">
<path d="M16 24.347l-9.404 5.264 2.1-10.571-7.913-7.317 10.703-1.269 4.515-9.787 4.515 9.787 10.703 1.269-7.913 7.317 2.1 10.571z"></path>
</symbol>
<symbol id="icon-star-line" viewBox="0 0 32 32">
<path d="M16 24.347l-9.404 5.264 2.1-10.571-7.913-7.317 10.703-1.269 4.515-9.787 4.515 9.787 10.703 1.269-7.913 7.317 2.1 10.571-9.404-5.264zM16 21.291l5.663 3.169-1.265-6.364 4.764-4.407-6.444-0.764-2.717-5.892-2.717 5.893-6.444 0.763 4.764 4.407-1.265 6.364 5.663-3.169z"></path>
</symbol>
<symbol id="icon-twitter-fill" viewBox="0 0 32 32">
<path d="M29.549 7.541c-0.933 0.424-2.014 0.733-3.149 0.872l-0.054 0.005c1.154-0.698 2.021-1.771 2.442-3.046l0.011-0.040c-1.093 0.651-2.292 1.107-3.541 1.353-1.020-1.090-2.468-1.769-4.074-1.769-3.080 0-5.576 2.496-5.576 5.576 0 0.453 0.054 0.894 0.156 1.316l-0.008-0.038c-4.645-0.24-8.731-2.447-11.471-5.798l-0.022-0.028c-0.474 0.801-0.755 1.766-0.755 2.796 0 0.003 0 0.006 0 0.008v-0c0 1.933 0.984 3.641 2.48 4.641-0.931-0.030-1.797-0.285-2.553-0.712l0.028 0.014v0.069c0.001 2.69 1.904 4.934 4.437 5.462l0.036 0.006c-0.44 0.124-0.946 0.195-1.468 0.195-0.372 0-0.736-0.036-1.087-0.105l0.036 0.006c0.733 2.234 2.779 3.827 5.204 3.873l0.005 0c-1.883 1.49-4.293 2.39-6.913 2.39-0.473 0-0.939-0.029-1.397-0.086l0.055 0.006c2.411 1.572 5.362 2.507 8.532 2.507 0.005 0 0.010 0 0.016 0h-0.001c10.257 0 15.867-8.497 15.867-15.867 0-0.24-0.007-0.483-0.017-0.72 1.096-0.798 2.019-1.755 2.757-2.847l0.026-0.040z"></path>
</symbol>
<symbol id="icon-user-line" viewBox="0 0 32 32">
<path d="M5.333 29.333c0-5.891 4.776-10.667 10.667-10.667s10.667 4.776 10.667 10.667v0h-2.667c0-4.418-3.582-8-8-8s-8 3.582-8 8v0h-2.667zM16 17.333c-4.42 0-8-3.58-8-8s3.58-8 8-8 8 3.58 8 8-3.58 8-8 8zM16 14.667c2.947 0 5.333-2.387 5.333-5.333s-2.387-5.333-5.333-5.333-5.333 2.387-5.333 5.333 2.387 5.333 5.333 5.333z"></path>
</symbol>
</defs>
</svg>
